  <svg width="300" height="200" viewBox="0 0 710 200" class="logo">
    <svg width="100%" height="100%" viewBox="0 0 200 200" x="-35%">
  <circle cx="100" cy="100" r="30" fill="#5C53FB"  class="circle"/>
  <g transform="translate(100,100)" class="circle-group">  
  <circle cx="-30" cy="0" r="10" fill="#5C53FB"  class="circle-left"/>
  <g class="g-mid">
    <circle cx="0" cy="0" r="10" fill="#5C53FB"  class="circle-mid"/>    
    </g>
    <circle cx="30" cy="0" r="10" fill="#5C53FB" class="circle-right"/> 
  </g>
  <g class="path-group">    
    <path xmlns="http://www.w3.org/2000/svg" d="M115.204 111.382h-72.425c-4.268 0-7.726-3.459-7.726-7.726s3.459-7.726 7.726-7.726h72.425c4.268 0 7.726 3.459 7.726 7.726s-3.458 7.726-7.726 7.726z" fill="#fff"/>
 
    <path d="M155.204 75.382h-113.282c-4.268 0-7.726-3.459-7.726-7.726s3.459-7.726 7.726-7.726h103.283c4.268 0 7.726 3.459 7.726 7.726s-3.459 7.726-7.727 7.726z" fill="#fff" />
    
     <path d="m72.71 147.382h-27.213c-4.268 0-7.726-3.459-7.726-7.726s3.459-7.726 7.726-7.726h27.213c4.268 0 7.726 3.459 7.726 7.726s-3.458 7.726-7.726 7.726z" fill="#fff" />
       
  </g>
  <g id="triangle-group">
   <path d="M 0 0 L 50 10 L 0 20 z"
         class="tri-angle"                  
        />  
  </g> 
</svg>
    <text class="logo-title" x="33%" y="75%">chatly</text>
  </svg>