 <svg width="75" height="75" viewBox="0 0 200 200">
  <circle cx="100" cy="100" r="90" fill="#5C53FB"  class="medium-logo-circle"/>
  <g>    
    <path xmlns="http://www.w3.org/2000/svg" d="M123.204 111.382h-72.425c-4.268 0-7.726-3.459-7.726-7.726s3.459-7.726 7.726-7.726h72.425c4.268 0 7.726 3.459 7.726 7.726s-3.458 7.726-7.726 7.726z" fill="#fff"/>
 
    <path d="M163.204 75.382h-112.282c-4.268 0-7.726-3.459-7.726-7.726s3.459-7.726 7.726-7.726h103.283c4.268 0 7.726 3.459 7.726 7.726s-3.459 7.726-7.727 7.726z" fill="#fff" />
    
     <path d="m80.71 147.382h-27.213c-4.268 0-7.726-3.459-7.726-7.726s3.459-7.726 7.726-7.726h27.213c4.268 0 7.726 3.459 7.726 7.726s-3.458 7.726-7.726 7.726z" fill="#fff" />
       
  </g>
  <g id="medium-logo-triangle-group">
   <path d="M 0 0 L 50 10 L 0 20 z"
         class="medium-logo-tri-angle"                  
        />  
  </g> 
</svg> 